<svg id="Layer_2" data-name="Layer 2" xmlns="http://www.w3.org/2000/svg" viewBox="0 0 143.51 110.34"><defs><style>.cls-1{fill:none;}.cls-2{fill:#8d6a40;}.cls-3{fill:#3f2a15;}.cls-4{fill:#c72127;}.cls-5{fill:#e62125;}</style></defs><path class="cls-1" d="M187,182.65a15.76,15.76,0,0,0,2.41.53A14.89,14.89,0,0,1,187,182.65Z" transform="translate(-106.78 -147.28)"/><path class="cls-1" d="M173.19,193.83a.51.51,0,0,0,.16.23C173.26,194,173.25,194,173.19,193.83Z" transform="translate(-106.78 -147.28)"/><path class="cls-1" d="M193.32,195.18l0,0Z" transform="translate(-106.78 -147.28)"/><path class="cls-1" d="M177.43,191.61c.84-.07,1.6-.07,2-.1C179,191.54,178.26,191.54,177.43,191.61Z" transform="translate(-106.78 -147.28)"/><path class="cls-1" d="M204.28,200.27l-.07-.06Z" transform="translate(-106.78 -147.28)"/><path class="cls-1" d="M204.37,200.35l0,0Z" transform="translate(-106.78 -147.28)"/><path class="cls-1" d="M200.84,198.7c-4-1.49-6.14-2.49-7.48-3.5C194.7,196.21,196.85,197.21,200.84,198.7Z" transform="translate(-106.78 -147.28)"/><path class="cls-1" d="M204.2,200.2a11.59,11.59,0,0,0-3-1.37A11.58,11.58,0,0,1,204.2,200.2Z" transform="translate(-106.78 -147.28)"/><path class="cls-1" d="M184.24,185.67a8,8,0,0,1,4.9,3.39A8,8,0,0,0,184.24,185.67Z" transform="translate(-106.78 -147.28)"/><path class="cls-2" d="M214.41,205.6c1.75.78,2.85,2.64.53,1.55-1-.2-2.13-.17-2.46-.74C212.77,205.65,213.59,205.58,214.41,205.6Z" transform="translate(-106.78 -147.28)"/><path class="cls-3" d="M148.28,162.9c.58.89,1.13,1.8,1.66,2.73-4-1.53-3.2-1.58-6.27-2.87A17.93,17.93,0,0,1,148.28,162.9Z" transform="translate(-106.78 -147.28)"/><path class="cls-3" d="M164.42,165.51c-2.58-3.78-3.69-3.53-3.93-4.1-.17-.4,11.21,1.65,15.14,3.94C175.77,166.07,174.44,164.07,164.42,165.51Z" transform="translate(-106.78 -147.28)"/><path class="cls-2" d="M204.88,191.25a13.44,13.44,0,0,0,1.83-2.71c1.5-1.18,1.44-1,2.06-2.47,3.46,1.51,3.22,5.68-1.11,7.25A10.17,10.17,0,0,1,204.88,191.25Z" transform="translate(-106.78 -147.28)"/><path class="cls-2" d="M201.57,188.65c-.86-4.18-3.24-6.74-4.53-10.54,4.34,2.43,7.85,5.67,9.67,10.43a13.44,13.44,0,0,1-1.83,2.71C203.85,190.31,202.64,189.55,201.57,188.65Z" transform="translate(-106.78 -147.28)"/><path class="cls-3" d="M207.68,220.1c-5-2.24-7.32-10-12.85-13.51-1.05-.67-3.91-1.33-3.05-2.8a2.2,2.2,0,0,1,1.42-1,13.74,13.74,0,0,1,4.29,2.81c4,4.15,6.29,13.11,13.1,13.34,3.29.12,3.63-1,4.07-.8a1.7,1.7,0,0,1-.62,1.48A6.49,6.49,0,0,1,207.68,220.1Z" transform="translate(-106.78 -147.28)"/><path class="cls-2" d="M223.17,219.75a8.17,8.17,0,0,1-5.17-2.21c-6.85-5.93-9.14-3.5-13.73-2.64,3.82-3.47,8.53-3,12.85-.55,2.31,1.33,4.2,3.33,7.07,3.21,5.57-.21,8-6.24,15-5.86,5.32.44,8.8,4.08,11.06,8.9C236.57,205.54,233.28,220.51,223.17,219.75Z" transform="translate(-106.78 -147.28)"/><path class="cls-2" d="M236.66,189.72c-.32,5-1.55,10.52-6.32,13a9.12,9.12,0,0,1-3.65,1.19c0-1.31,0-1.08-.07-1.32-.26-1-.88-1.89-1-2.86,1.81-2.14,4.7-2.52,6.56-5.69s1.58-6.29,2.29-9.71c.89-4.31,4.4-6.89,8.57-7.7C236.67,179.87,237.1,183,236.66,189.72Z" transform="translate(-106.78 -147.28)"/><path class="cls-3" d="M163.2,165.65a39.75,39.75,0,0,1-11.54.25c-3.07-4.83-5.91-9.41-6.6-15.21a12.59,12.59,0,0,1-.1-3.41c4.92,11.26,13,13.36,16,15.6C161.46,163.29,163.42,164.94,163.2,165.65Z" transform="translate(-106.78 -147.28)"/><path class="cls-4" d="M153.43,185.11l-.73-.21Z" transform="translate(-106.78 -147.28)"/><path class="cls-4" d="M152.67,184.89l-.27-.07Z" transform="translate(-106.78 -147.28)"/><path class="cls-4" d="M152.28,184.78l-.2-.05Z" transform="translate(-106.78 -147.28)"/><path class="cls-3" d="M177.09,188.54a29.94,29.94,0,0,1-3.67.08,43,43,0,0,0,6.05,2.89c-.44,0-1.2,0-2,.1-1.71.15-3.76.61-4.24,2.22.06.18.07.18.16.23l.07.06c-.7.25-13.88-1.23-23.7-10.23.66.26,1.33.5,2,.73,3.72,4.76,17.06,6.36,23.17,6.18-7.37-4.46-12.11-3.12-10.42-4.18-.53,0-1,0-1.57,0,2.92,0,4.69-.66,10.7.73-2.55-2.33-4-5.36-5.58-8.38.63.42,1.28.8,1.93,1.2A21.55,21.55,0,0,0,177.09,188.54Z" transform="translate(-106.78 -147.28)"/><path class="cls-5" d="M152.08,184.73l-.35-.11Z" transform="translate(-106.78 -147.28)"/><path class="cls-5" d="M152.7,184.9h0Z" transform="translate(-106.78 -147.28)"/><path class="cls-5" d="M152.4,184.82l-.12,0Z" transform="translate(-106.78 -147.28)"/><path class="cls-5" d="M153.43,185.11a39.08,39.08,0,0,0,9.48,1.52C160.89,186.67,158.32,186.44,153.43,185.11Z" transform="translate(-106.78 -147.28)"/><path class="cls-2" d="M164.48,186.62c-1.69,1.06,3.05-.28,10.42,4.18-6.11.18-19.45-1.42-23.17-6.18l.35.11.2.05.12,0,.27.07h0l.73.21c4.89,1.33,7.46,1.56,9.48,1.52C163.43,186.64,164,186.64,164.48,186.62Z" transform="translate(-106.78 -147.28)"/><path class="cls-2" d="M189.38,183.18a15.76,15.76,0,0,1-2.41-.53c-1,.39-3.66-5.13-4.57-6.62,2.25,1.36,4.75,2.13,6.91,3.68,1.84,1.32,3.36,3.8,4.61,3.72.15-1.24-1.91-4.64-2.71-5.63-2.51-3.12-6-4.13-9.83-4.54a23.12,23.12,0,0,1-2-2.72c-2.71-4.59-2.68-11.13-1.35-16.19.67,13.55,12.39,19.42,15.32,22.53,1.76,1.86,3.39,5.08,4.59,5.25.2,1.17,2.28,4.33,2.87,5.9A28.92,28.92,0,0,0,189.38,183.18Z" transform="translate(-106.78 -147.28)"/><path class="cls-3" d="M204.06,221.19c2.27,1.79,6.1,1.83,8.75,1a12.63,12.63,0,0,0,2.53-1.24c-.72,5-4,6.69-2.48,12.31a14,14,0,0,1-3.09-5c-.77,4.3-2.82,7.47-7.27,9.24a9.94,9.94,0,0,0,2.87-7.83c-.15-3.31.41,2.76-7.68,5.93a30.72,30.72,0,0,1-3.72,1.15,19.75,19.75,0,0,0,4.28-8.65,13.75,13.75,0,0,1-6.4,3.94,25.56,25.56,0,0,0,4.62-8.5c.89-2.84.95-.59-5,1.53,1.89-1.68,3.9-3.52,4.08-6.22.23-3.6-2.34-5.92-5.6-7.46.9-1.1.72-3,1.68-3.84C198.43,211.24,200.8,218.63,204.06,221.19Z" transform="translate(-106.78 -147.28)"/><path class="cls-3" d="M176.32,180.16c-3.64-.7-6.25-4-9.9-4.91-3.07-.73-6.47-.21-9.6-.22-12.29,0-23.6-9.74-24.57-24-.54-7.9-.34,5.65,12.49,13.37,11.55,6.94,23.34-1.64,31.59,6.77C180.42,175.36,181.19,181.1,176.32,180.16Z" transform="translate(-106.78 -147.28)"/><path class="cls-3" d="M223,209.07c3.72-4,1.06-6.63,1-10.74-6.54,1.45-5.44.71-9.66-1.83a62.46,62.46,0,0,0-6.64-3.18h0a8,8,0,0,1-2.78-2.07c-1-.94-2.24-1.7-3.31-2.6-.86-4.18-3.24-6.74-4.53-10.54L195,176.93a16.12,16.12,0,0,1,3,5.2c.2,1.17,2.28,4.33,2.87,5.9a29,29,0,0,0-11.44-4.85,14.89,14.89,0,0,1-2.41-.53c-1.28.52-3.95.13-7.93,2.15,1.26.33,3.22.34,5.2.87a8,8,0,0,1,4.9,3.39,1.37,1.37,0,0,1,.13.2c1.83,3,2.12,4.45,4,5.89l0,0,0,0c1.34,1,3.49,2,7.48,3.5l.35.13a11.58,11.58,0,0,1,3,1.37h0l.07.06.06.06,0,0a4.14,4.14,0,0,1,.78,1c0,.57,0,1.13-.06,1.7,1.68.56,3.17,1.46,4.83,2,1.14-.66,4-3,6.73-.3,1.37,1.31,2.5,4-.69,6.18C218.56,211.52,220.94,211.25,223,209.07Zm-21-15.68c-.19.83-3.48,1.46-5.57,1-4.24-1-5-5.87-3.83-6.4a15.3,15.3,0,0,1,3.77,1.83c-2.16,2.77-.73,3.86,1.33,3.52C200,192.93,197.82,189.07,202,193.39Z" transform="translate(-106.78 -147.28)"/><path class="cls-2" d="M204.88,191.25a10.17,10.17,0,0,0,2.78,2.07h0A8,8,0,0,1,204.88,191.25Z" transform="translate(-106.78 -147.28)"/><path class="cls-2" d="M189.38,183.18A28.92,28.92,0,0,1,200.82,188,29,29,0,0,0,189.38,183.18Z" transform="translate(-106.78 -147.28)"/><path class="cls-2" d="M189.14,189.06a1.37,1.37,0,0,1,.13.2c1.83,3,2.12,4.45,4,5.89l0,0,0,0c1.34,1,3.48,2,7.48,3.5l.35.13a11.59,11.59,0,0,1,3,1.37h0l.07.06.06.06,0,0a4.14,4.14,0,0,1,.78,1c0,.57,0,1.13-.06,1.7-2.41-.37-4.89-.63-7.27-1.18-2.92-.67-11.59-5.14-12.24.47-.45,3.85,3.76,4,6,5.25-1,.89-.78,2.74-1.68,3.84C185,209.83,175.4,215,163.07,211a17.15,17.15,0,0,0,10-3.43,26,26,0,0,1-13.6-.59,36.51,36.51,0,0,0,8.78-2c-3.9-.48-9.87-.73-16.75-5.54a29.56,29.56,0,0,0,9.48,0c-4.41-.63-7.67-1.83-10.82-5.11,6.23,3.08,24,1.61,27.79.65-2.15-.28-3.86-.38-4.49-.83h0l-.09-.05a.51.51,0,0,1-.16-.23c.47-1.6,2.53-2.06,4.24-2.22.83-.07,1.58-.07,2-.1a43,43,0,0,1-6.05-2.89,29.94,29.94,0,0,0,3.67-.08,21.55,21.55,0,0,1-7.13-8.36c3,1.7,5.62,3.86,9.08,4.62,1.26.33,3.22.34,5.2.87A8,8,0,0,1,189.14,189.06Z" transform="translate(-106.78 -147.28)"/><path class="cls-5" d="M173.44,194.11h0l-.07-.06Z" transform="translate(-106.78 -147.28)"/><path class="cls-2" d="M177.43,191.61c-1.71.16-3.77.62-4.24,2.22C173.67,192.22,175.72,191.76,177.43,191.61Z" transform="translate(-106.78 -147.28)"/><path class="cls-2" d="M179,184.8c1.26.33,3.22.34,5.2.87C182.26,185.14,180.3,185.13,179,184.8Z" transform="translate(-106.78 -147.28)"/><path class="cls-5" d="M204.34,200.33l-.06-.06Z" transform="translate(-106.78 -147.28)"/><path class="cls-2" d="M201.19,198.83l-.35-.13Z" transform="translate(-106.78 -147.28)"/><path class="cls-5" d="M204.21,200.21h0Z" transform="translate(-106.78 -147.28)"/><path class="cls-2" d="M189.27,189.26c1.83,3,2.12,4.45,4,5.89C191.39,193.71,191.1,192.24,189.27,189.26Z" transform="translate(-106.78 -147.28)"/><path class="cls-5" d="M193.36,195.2l0,0Z" transform="translate(-106.78 -147.28)"/><path class="cls-2" d="M204.37,200.35a4.14,4.14,0,0,1,.78,1A4.14,4.14,0,0,0,204.37,200.35Z" transform="translate(-106.78 -147.28)"/><path class="cls-2" d="M128.79,233.49c2.07,4,8,10.52,11.48,13.35a22.78,22.78,0,0,1-1.61-6.36,99,99,0,0,0,11.41,9.28c-.27-.94-.51-1.9-.76-2.85,3.59,2.79,8.36,6.43,11.31,10.71.4-.48.78-1,1.14-1.49-7.59-9.49-23.1-18.74-30.3-25.52-25.37-23.9-14.92-53.57,8.17-60.64a25.68,25.68,0,0,1-3.73-4.71c-5.76,1.19-12.25,3.22-16.89,7a19.5,19.5,0,0,1,9.74.52c-7.53,1.63-16.3,8-22,13a33.49,33.49,0,0,1,11.27-1.78c-7.28,5.53-10.8,12.79-11.18,19.26a19.35,19.35,0,0,1,7.34-6c-3.18,6-4.73,14-2.94,20.57a18.51,18.51,0,0,1,3.92-6.49,41,41,0,0,0,4.15,20.17,17.86,17.86,0,0,1,2.24-8.1,44.17,44.17,0,0,0,1.25,6.93c1.07,4.32,2.77,8.48,6.76,10.89A18,18,0,0,1,128.79,233.49Z" transform="translate(-106.78 -147.28)"/><path class="cls-2" d="M164.66,250.52c1.08-3.12,1.12-5.79,1-9.51a29.05,29.05,0,0,0-.66-5.72c-.43-1.86-1.53-3,.15-1.84a9.29,9.29,0,0,1-3.45-4.09c-9.21-5.7-17.87-11.24-21.64-19.89s-.14-16.4,7-19.48a19.21,19.21,0,0,0,10.52,2.32c-7.94-1.26-14.95-9.53-18.26-16.9,3.68,4.33,8.47,5.82,14,7.11,2,.46,9.34,2.11,10.75.66,1.21-1.24-.91-4.38-6.73-5.8-4-1-9.48-.64-16.63-6.39-3,1-6.56,2.14-9.14,4.08.08.27.16.35,0,.61-.68,1.16-2.83,2.77-3.81,4.24a33.52,33.52,0,0,0-5,25.28C126.43,223.77,152.11,236,164.66,250.52Z" transform="translate(-106.78 -147.28)"/><path class="cls-3" d="M162.41,255.13a22.85,22.85,0,0,0,1.28-2.27,20.86,20.86,0,0,0,1-2.34C152.11,236,126.43,223.77,122.8,205.2a33.52,33.52,0,0,1,5-25.28c1-1.47,3.13-3.08,3.81-4.24.15-.26.07-.34,0-.61-13,8.43-18.18,28.16-7.32,44.76,5.26,8,12.89,13.91,20.53,19.65C149.4,243,157.28,248.66,162.41,255.13Z" transform="translate(-106.78 -147.28)"/></svg>