<svg id="Layer_1" data-name="Layer 1" xmlns="http://www.w3.org/2000/svg" viewBox="0 0 650.17 205.83"><defs><style>.cls-1{fill:none;}.cls-2{fill:#8e6b41;}.cls-3{fill:#3f2b16;}.cls-4{fill:#c82127;}.cls-5{fill:#e72325;}.cls-6,.cls-7{fill:#3f2a14;}.cls-7{stroke:#fff;stroke-miterlimit:10;}</style></defs><path class="cls-1" d="M338.3,509.26a25.57,25.57,0,0,0,3.62.79A24.53,24.53,0,0,1,338.3,509.26Z" transform="translate(-218.19 -456.27)"/><path class="cls-1" d="M317.66,526a1,1,0,0,0,.25.34C317.77,526.27,317.76,526.26,317.66,526Z" transform="translate(-218.19 -456.27)"/><path class="cls-1" d="M347.83,528l-.07,0Z" transform="translate(-218.19 -456.27)"/><path class="cls-1" d="M324,522.68c1.26-.11,2.4-.11,3.05-.15C326.39,522.57,325.27,522.57,324,522.68Z" transform="translate(-218.19 -456.27)"/><path class="cls-1" d="M364.25,535.65l-.12-.09Z" transform="translate(-218.19 -456.27)"/><path class="cls-1" d="M364.37,535.77l0,0Z" transform="translate(-218.19 -456.27)"/><path class="cls-1" d="M359.09,533.3c-6-2.24-9.2-3.74-11.22-5.24C349.89,529.56,353.1,531.06,359.09,533.3Z" transform="translate(-218.19 -456.27)"/><path class="cls-1" d="M364.11,535.54a17.45,17.45,0,0,0-4.51-2A17.11,17.11,0,0,1,364.11,535.54Z" transform="translate(-218.19 -456.27)"/><path class="cls-1" d="M334.22,513.77a12.11,12.11,0,0,1,7.35,5.08A12.11,12.11,0,0,0,334.22,513.77Z" transform="translate(-218.19 -456.27)"/><path class="cls-2" d="M379.41,543.63c2.63,1.16,4.27,4,.8,2.32-1.47-.3-3.19-.24-3.68-1.1C377,543.7,378.19,543.6,379.41,543.63Z" transform="translate(-218.19 -456.27)"/><path class="cls-3" d="M280.35,479.67c.87,1.34,1.69,2.7,2.5,4.08-6-2.28-4.81-2.36-9.41-4.29A27.31,27.31,0,0,1,280.35,479.67Z" transform="translate(-218.19 -456.27)"/><path class="cls-3" d="M304.53,483.58c-3.86-5.66-5.52-5.29-5.89-6.15-.25-.59,16.8,2.48,22.69,5.9C321.54,484.42,319.54,481.41,304.53,483.58Z" transform="translate(-218.19 -456.27)"/><path class="cls-2" d="M365.14,522.13a19.62,19.62,0,0,0,2.74-4c2.25-1.77,2.15-1.49,3.08-3.7,5.2,2.26,4.83,8.5-1.66,10.85A14.72,14.72,0,0,1,365.14,522.13Z" transform="translate(-218.19 -456.27)"/><path class="cls-2" d="M360.18,518.24c-1.28-6.26-4.85-10.09-6.79-15.79,6.5,3.65,11.77,8.5,14.49,15.63a19.62,19.62,0,0,1-2.74,4C363.6,520.73,361.78,519.59,360.18,518.24Z" transform="translate(-218.19 -456.27)"/><path class="cls-3" d="M369.34,565.35c-7.46-3.35-11-15-19.26-20.23-1.57-1-5.85-2-4.57-4.19a3.32,3.32,0,0,1,2.14-1.59,20.64,20.64,0,0,1,6.41,4.22c6,6.22,9.43,19.63,19.63,20,4.93.18,5.44-1.49,6.1-1.19a2.54,2.54,0,0,1-.92,2.21C376.76,566.3,372.7,566.85,369.34,565.35Z" transform="translate(-218.19 -456.27)"/><path class="cls-2" d="M392.54,564.82a12.12,12.12,0,0,1-7.75-3.31c-10.26-8.88-13.69-5.23-20.56-4,5.72-5.2,12.78-4.52,19.24-.81,3.46,2,6.29,5,10.6,4.8,8.34-.32,12-9.36,22.53-8.79,8,.67,13.17,6.12,16.56,13.35C412.6,543.54,407.68,566,392.54,564.82Z" transform="translate(-218.19 -456.27)"/><path class="cls-2" d="M412.75,519.85c-.49,7.45-2.32,15.76-9.47,19.49-1.33.69-4,1.89-5.47,1.78,0-2,0-1.63-.1-2-.4-1.45-1.32-2.83-1.56-4.29,2.71-3.2,7-3.78,9.82-8.51s2.37-9.43,3.43-14.56c1.34-6.45,6.59-10.32,12.83-11.52C412.76,505.1,413.41,509.83,412.75,519.85Z" transform="translate(-218.19 -456.27)"/><path class="cls-3" d="M302.7,483.78a59.51,59.51,0,0,1-17.29.39c-4.59-7.25-8.84-14.1-9.88-22.79a19,19,0,0,1-.15-5.11c7.37,16.87,19.52,20,23.93,23.37C300.1,480.25,303,482.73,302.7,483.78Z" transform="translate(-218.19 -456.27)"/><path class="cls-4" d="M288.07,512.93l-1.1-.3Z" transform="translate(-218.19 -456.27)"/><path class="cls-4" d="M286.92,512.62l-.39-.12Z" transform="translate(-218.19 -456.27)"/><path class="cls-4" d="M286.34,512.45l-.3-.09Z" transform="translate(-218.19 -456.27)"/><path class="cls-3" d="M323.52,518.08a48.26,48.26,0,0,1-5.51.12,64.87,64.87,0,0,0,9.06,4.33c-.65,0-1.79,0-3.05.15-2.57.23-5.64.91-6.36,3.33.1.25.11.26.25.34l.1.08c-1,.38-20.79-1.83-35.5-15.32,1,.4,2,.75,3,1.1,5.57,7.12,25.55,9.52,34.71,9.26-11-6.68-18.14-4.68-15.62-6.27-.79,0-1.57,0-2.34,0,4.38-.07,7-1,16,1.09-3.82-3.48-6-8-8.36-12.54.95.62,1.93,1.2,2.9,1.79A32.2,32.2,0,0,0,323.52,518.08Z" transform="translate(-218.19 -456.27)"/><path class="cls-5" d="M286,512.36l-.52-.15Z" transform="translate(-218.19 -456.27)"/><path class="cls-5" d="M287,512.63h0Z" transform="translate(-218.19 -456.27)"/><path class="cls-5" d="M286.53,512.5l-.19,0Z" transform="translate(-218.19 -456.27)"/><path class="cls-5" d="M288.07,512.93a57,57,0,0,0,14.2,2.28C299.25,515.27,295.4,514.93,288.07,512.93Z" transform="translate(-218.19 -456.27)"/><path class="cls-2" d="M304.61,515.2c-2.52,1.59,4.58-.41,15.62,6.27-9.16.26-29.14-2.14-34.71-9.26l.52.15.3.09.19,0,.39.12H287l1.1.3c7.33,2,11.18,2.34,14.2,2.28C303,515.23,303.82,515.23,304.61,515.2Z" transform="translate(-218.19 -456.27)"/><path class="cls-2" d="M341.92,510.05a25.57,25.57,0,0,1-3.62-.79c-1.44.58-5.48-7.7-6.83-9.93,3.36,2.05,7.11,3.2,10.34,5.52,2.76,2,5,5.7,6.92,5.57.21-1.86-2.87-6.94-4.07-8.43-3.76-4.68-9-6.19-14.72-6.8a34.09,34.09,0,0,1-3-4.08c-4.06-6.87-4-16.67-2-24.25,1,20.3,18.57,29.1,23,33.75,2.64,2.79,5.07,7.61,6.87,7.87.3,1.75,3.41,6.49,4.3,8.83C351,512,345.51,510.72,341.92,510.05Z" transform="translate(-218.19 -456.27)"/><path class="cls-3" d="M363.91,567c3.39,2.68,9.13,2.74,13.1,1.54a19.08,19.08,0,0,0,3.8-1.85c-1.08,7.47-5.93,10-3.72,18.43a21,21,0,0,1-4.63-7.43c-1.15,6.44-4.22,11.2-10.89,13.84a14.84,14.84,0,0,0,4.3-11.72c-.22-5,.62,4.13-11.5,8.88a45.85,45.85,0,0,1-5.57,1.71,29.48,29.48,0,0,0,6.41-12.95c-2.92,2.88-5.57,4.81-9.59,5.91a38,38,0,0,0,6.91-12.75c1.35-4.24,1.43-.88-7.54,2.3,2.83-2.51,5.85-5.28,6.11-9.32.35-5.39-3.5-8.87-8.38-11.17,1.34-1.65,1.07-4.41,2.51-5.75C355.48,552.08,359,563.15,363.91,567Z" transform="translate(-218.19 -456.27)"/><path class="cls-3" d="M322.36,505.53c-5.45-1-9.36-6-14.84-7.36-4.59-1.1-9.69-.32-14.38-.33-18.4-.07-35.35-14.59-36.81-35.94-.8-11.83-.5,8.46,18.73,20,17.29,10.4,35-2.46,47.31,10.14C328.5,498.33,329.66,506.93,322.36,505.53Z" transform="translate(-218.19 -456.27)"/><path class="cls-3" d="M392.27,548.83c5.56-5.93,1.59-9.94,1.45-16.09-9.79,2.18-8.16,1.07-14.47-2.73-4.51-2.72-7.4-3.47-9.95-4.78h0c-1.35-.34-3.2-2.1-4.16-3.1-1.54-1.4-3.36-2.54-5-3.89-1.28-6.26-4.85-10.09-6.79-15.79l-3.1-1.77a24.42,24.42,0,0,1,4.47,7.8c.3,1.75,3.41,6.49,4.3,8.83-8.08-5.33-13.54-6.59-17.14-7.26a24.53,24.53,0,0,1-3.62-.79c-1.91.77-5.9.19-11.87,3.21,1.88.51,4.82.51,7.79,1.3a12.11,12.11,0,0,1,7.35,5.08c.06.1.13.2.19.31,2.74,4.46,3.17,6.66,6,8.81l.07,0,0,0c2,1.5,5.23,3,11.22,5.24l.51.19a17.11,17.11,0,0,1,4.51,2l0,0,.12.09.09.08,0,0a6,6,0,0,1,1.18,1.55c0,.84,0,1.69-.09,2.53,2.51.84,4.74,2.19,7.23,3,1.7-1,5.91-4.45,10.08-.45,2.05,2,3.74,6-1,9.26C385.63,552.51,389.19,552.1,392.27,548.83Zm-31.4-23.48c-.29,1.23-5.22,2.19-8.35,1.43-6.35-1.54-7.54-8.8-5.73-9.59a23,23,0,0,1,5.64,2.74c-3.23,4.15-1.09,5.79,2,5.27C357.79,524.65,354.56,518.87,360.87,525.35Z" transform="translate(-218.19 -456.27)"/><path class="cls-2" d="M365.14,522.13a14.72,14.72,0,0,0,4.16,3.1h0C368,524.89,366.1,523.13,365.14,522.13Z" transform="translate(-218.19 -456.27)"/><path class="cls-2" d="M341.92,510.05c3.59.67,9,1.91,17.14,7.26C351,512,345.52,510.72,341.92,510.05Z" transform="translate(-218.19 -456.27)"/><path class="cls-2" d="M341.57,518.85c.06.1.13.2.19.31,2.73,4.46,3.17,6.66,6,8.81l.07,0,0,0c2,1.5,5.23,3,11.22,5.24l.51.19a17.45,17.45,0,0,1,4.51,2l0,0,.12.09.09.08,0,0a6.18,6.18,0,0,1,1.18,1.55c0,.84,0,1.69-.09,2.53-3.62-.54-7.33-.93-10.9-1.76-4.38-1-17.36-7.7-18.34.71-.67,5.76,5.65,6,9,7.86-1.44,1.34-1.17,4.1-2.51,5.75-7.38-2.44-21.74,5.32-40.22-.65,5.61-.39,10.4-1.6,14.92-5.14-7.13,1.67-13.37,1.08-20.37-.87a54.69,54.69,0,0,0,13.15-3.08c-5.83-.72-14.77-1.09-25.09-8.3,4.84,1,9.35.53,14.2,0-6.59-.94-11.47-2.74-16.21-7.65,9.34,4.61,36,2.41,41.64,1-3.22-.43-5.78-.57-6.73-1.25h0l-.13-.07a1,1,0,0,1-.25-.34c.72-2.41,3.8-3.1,6.36-3.33,1.25-.11,2.37-.11,3.05-.15A64.87,64.87,0,0,1,318,518.2a48.26,48.26,0,0,0,5.51-.12,32.2,32.2,0,0,1-10.69-12.53c4.5,2.54,8.42,5.78,13.6,6.92,1.89.51,4.83.51,7.79,1.3A12.11,12.11,0,0,1,341.57,518.85Z" transform="translate(-218.19 -456.27)"/><path class="cls-5" d="M318,526.42h0l-.1-.08Z" transform="translate(-218.19 -456.27)"/><path class="cls-2" d="M324,522.68c-2.56.23-5.64.92-6.36,3.33C318.38,523.59,321.45,522.91,324,522.68Z" transform="translate(-218.19 -456.27)"/><path class="cls-2" d="M326.43,512.47c1.88.51,4.82.51,7.79,1.3C331.26,513,328.32,513,326.43,512.47Z" transform="translate(-218.19 -456.27)"/><path class="cls-5" d="M364.34,535.73l-.09-.08Z" transform="translate(-218.19 -456.27)"/><path class="cls-2" d="M359.6,533.49l-.51-.19Z" transform="translate(-218.19 -456.27)"/><path class="cls-5" d="M364.13,535.56l0,0Z" transform="translate(-218.19 -456.27)"/><path class="cls-2" d="M341.76,519.16c2.74,4.46,3.17,6.66,6,8.81C344.93,525.82,344.49,523.62,341.76,519.16Z" transform="translate(-218.19 -456.27)"/><path class="cls-5" d="M347.87,528.06l0,0Z" transform="translate(-218.19 -456.27)"/><path class="cls-2" d="M364.37,535.77a6,6,0,0,1,1.18,1.55A6.18,6.18,0,0,0,364.37,535.77Z" transform="translate(-218.19 -456.27)"/><path class="cls-5" d="M308.35,639.72h0Z" transform="translate(-218.19 -456.27)"/><path class="cls-2" d="M237,582.39c0-4.45,1.47-8.18,3.35-12.12a66.46,66.46,0,0,0,1.88,10.38c1.6,6.46,4.15,12.7,10.12,16.31a26.9,26.9,0,0,1-1.19-11.54c3.09,5.93,12,15.75,17.2,20a33.56,33.56,0,0,1-2.42-9.53c5.06,5.1,11.31,9.63,17.09,13.9-.4-1.41-.75-2.84-1.13-4.26,7.86,6.11,19.52,15,20.88,25.5a11.33,11.33,0,0,1-3.15,9.71,39.45,39.45,0,0,1,2.46,4.41,13.56,13.56,0,0,0,3.28-4.06c11.06-20.7-33.87-44.6-50.21-60-38-35.8-22.35-80.24,12.24-90.82a39,39,0,0,1-5.6-7.07c-8.61,1.78-18.34,4.83-25.29,10.43a29,29,0,0,1,14.59.79c-11.28,2.43-24.42,11.95-32.91,19.4a50.22,50.22,0,0,1,16.89-2.66c-10.91,8.29-16.19,19.16-16.75,28.85,2.77-4.06,6.72-6.65,11-8.92-4.76,8.93-7.08,20.92-4.41,30.82a28,28,0,0,1,5.88-9.73C230.5,563.74,232.15,571.92,237,582.39Z" transform="translate(-218.19 -456.27)"/><path class="cls-2" d="M336,607.73c-18.77-25.57-57.08-33.23-68-58.3-5.74-13.16-.2-24.57,10.47-29.18,5,2.5,10.15,4,15.76,3.47-11.9-1.89-22.41-14.27-27.36-25.31,5.51,6.49,12.69,8.71,21,10.66,2.94.68,14,3.16,16.1,1,1.81-1.87-1.36-6.57-10.08-8.7-6-1.47-14.2-1-24.9-9.58-4.55,1.52-9.83,3.22-13.7,6.12.13.41.25.52,0,.92-1,1.73-4.24,4.14-5.71,6.34A50.22,50.22,0,0,0,242.19,543c7.22,37,72.83,57.08,73,91.05,0,7.83-4,14.21-10.86,16.91a40.48,40.48,0,0,1,1.16,5.29,6.54,6.54,0,0,1,8.71,1.74,3.67,3.67,0,0,0,1.75,1,6.35,6.35,0,0,1,1.58,0,33.12,33.12,0,0,0,7,.38,5.18,5.18,0,0,1,2.63.35,27.09,27.09,0,0,0,4.33-1.57,6.24,6.24,0,0,1,3.52-.46c.21-1,.45-1.92.75-2.85a34.09,34.09,0,0,1,6.3-15.1,32.23,32.23,0,0,1,2.86-11.42A47.13,47.13,0,0,0,336,607.73Z" transform="translate(-218.19 -456.27)"/><path class="cls-5" d="M308.49,639.17a.19.19,0,0,0,0,.07A.19.19,0,0,1,308.49,639.17Z" transform="translate(-218.19 -456.27)"/><path class="cls-4" d="M308.6,638.63c0,.18-.07.36-.11.54C308.53,639,308.57,638.81,308.6,638.63Z" transform="translate(-218.19 -456.27)"/><path class="cls-4" d="M303.09,647.46a12.69,12.69,0,0,0,5.25-7.73,12.79,12.79,0,0,1-5.26,7.7Z" transform="translate(-218.19 -456.27)"/><path class="cls-4" d="M308.47,639.24l-.12.48Z" transform="translate(-218.19 -456.27)"/><path class="cls-3" d="M242.19,543a50.22,50.22,0,0,1,7.41-37.87c1.47-2.2,4.68-4.61,5.71-6.34.23-.4.11-.51,0-.92-19.48,12.63-27.23,42.18-11,67,7.87,12,19.31,20.85,30.75,29.45,11.7,8.79,37.11,26.88,33.52,44.24a5.23,5.23,0,0,1-.12.54s0,.05,0,.07l-.12.48h0a12.69,12.69,0,0,1-5.25,7.73c.46,1.15.87,2.33,1.23,3.53,6.85-2.7,10.9-9.08,10.86-16.91C315,600.11,249.41,580,242.19,543Z" transform="translate(-218.19 -456.27)"/><path class="cls-6" d="M430,582.83V580q7.58-2.07,9.85-4.58t2.27-10.88V503.69q0-6.46-2.27-9T430,490.14v-2.79h48.86q26.61,0,42,13.47t15.42,35.47q0,21.19-13.79,33.87t-37.29,12.67Zm45.59-90.06H463.19v73.4q0,6.14,3.58,8.69t12,2.55q16.57,0,25.66-11t9.09-31.08q0-19.68-10-31.12T475.62,492.77Z" transform="translate(-218.19 -456.27)"/><path class="cls-6" d="M546.79,582.83V580q12.12-1,12.12-12.19V503.21q0-6.61-2.51-9.17t-9.61-3.9v-2.79h45.43q17.85,0,27.46,6.3a20,20,0,0,1,9.6,17.69,21.14,21.14,0,0,1-5,14.11q-5,5.89-14.32,8.6v.32q3.35.79,7.25,5.55t11.33,18.61q7.28,13.46,10.58,17.05a14.88,14.88,0,0,0,9,4.46v2.79H620.64q-5.42-6.41-13.89-23.2-5.84-11.55-8.67-15.37a17.27,17.27,0,0,0-5.9-5.38q-3.06-1.56-12.23-1.56v29.33q0,6.3,2.79,9.37t9.48,4v2.79Zm39.69-90.06H580V531.9c1.65.11,3.19.16,4.62.16q11.4,0,16.62-4.9t5.22-15.5Q606.41,492.76,586.48,492.77Z" transform="translate(-218.19 -456.27)"/><path class="cls-6" d="M724.61,582.83V570.08q-8.77,8.76-15.27,12a34.52,34.52,0,0,1-15.5,3.23q-15,0-23.87-8.61t-8.89-23.11V503.53c0-4.31-.78-7.32-2.35-9s-4.82-3.17-9.76-4.34v-2.79h45.27v2.79q-7.26,1.67-9.68,4.34c-1.63,1.78-2.43,5.06-2.43,9.85v53.39q0,8.78,4.78,13.75t13.15,5q11.79,0,24.55-13.23V503.53q0-6.46-2.32-9t-9.8-4.38v-2.79H757.6v2.79q-6.89,1.42-9.42,4.18t-2.53,11.12v61.21q0,6.47,2.29,9T757.6,580v2.79Z" transform="translate(-218.19 -456.27)"/><path class="cls-6" d="M833.48,506.06l-17.77,16.78,38.2,47q4.79,5.9,7.49,7.82a13.59,13.59,0,0,0,6.67,2.33v2.79h-43.6V580q6.62-1.51,6.62-4.54c0-1.12-.67-2.47-2-4.07l-29.88-37.06v31.17q0,6.93,2,9.52t10,5v2.79H766.05V580q7.58-1.75,9.84-4.46c1.52-1.81,2.27-4.94,2.27-9.41V503.53q0-6.54-2.35-9.09t-9.76-4.3v-2.79h45.11v2.79q-7,1.59-9.47,4.34c-1.66,1.83-2.48,4.45-2.48,7.85v28.3l29.41-28.3q2.94-2.79,2.94-5.5,0-4.62-8.84-6.69v-2.79h39.69v2.79a27.26,27.26,0,0,0-13.19,3.54Q842.71,497.24,833.48,506.06Z" transform="translate(-218.19 -456.27)"/><path class="cls-7" d="M299,648.78V631.37H270.62v18.69q0,4,1.38,5.6c.92,1,2.87,1.93,5.87,2.68v1.73H250.1v-1.73a17.75,17.75,0,0,0,4.71-1.72,5.12,5.12,0,0,0,2.17-2.39,16,16,0,0,0,.62-5.45V611q0-4-1.46-5.6c-1-1.07-3-2-6-2.69V601h27.77v1.72c-2.86.66-4.79,1.54-5.77,2.64s-1.48,2.84-1.48,5.21v16.57H299V611q0-4-1.44-5.6c-1-1.07-2.94-2-5.95-2.69V601h27.91v1.72c-3.16.83-5.19,1.75-6.12,2.79s-1.38,3.3-1.38,6.78v37.78q0,3.95,1.43,5.55c1,1.06,3,2,6.07,2.73v1.73H291.58v-1.73c2.88-.65,4.83-1.55,5.85-2.68S299,652.23,299,648.78Z" transform="translate(-218.19 -456.27)"/><path class="cls-7" d="M361.06,660.07v-1.73a14.51,14.51,0,0,0,5.14-1.7,3.22,3.22,0,0,0,1.5-2.83,14.7,14.7,0,0,0-1.14-4.54l-3.42-9.07H342.06L339.14,648a14.7,14.7,0,0,0-1.12,4.84q0,3.9,5.93,5.47v1.73H324.87v-1.73a10,10,0,0,0,6-3.6q2.56-3,5.09-9.81l17-45.47H361l18,47.29q2.47,6.32,4.84,8.81a9.14,9.14,0,0,0,6.18,2.78v1.73ZM344,636h17.6l-9-24Z" transform="translate(-218.19 -456.27)"/><path class="cls-7" d="M437.21,602.71V601h19.92v1.72q-8.58.49-8.58,9.67v48.38h-1.93l-42.5-47.89V649c0,3.16.57,5.36,1.72,6.63s3.47,2.18,7,2.73v1.73H392.43v-1.73c2.76-.42,4.74-1.37,5.94-2.83s1.8-3.74,1.8-6.83v-40.1a53.33,53.33,0,0,0-4.76-4.53,7.48,7.48,0,0,0-3.08-1.34V601h17.75l34.52,39.6V614c0-3.91-.51-6.62-1.54-8.11S440.08,603.34,437.21,602.71Z" transform="translate(-218.19 -456.27)"/><path class="cls-7" d="M461.57,660.07v-1.73c3.12-.85,5.15-1.8,6.09-2.83s1.41-3.28,1.41-6.73V611.1q0-4-1.41-5.57c-.94-1.06-3-2-6.09-2.82V601H491.8q16.47,0,26,8.33t9.54,21.95q0,13.11-8.53,21t-23.08,7.84Zm28.21-55.73h-7.69v45.42c0,2.53.74,4.33,2.22,5.38s3.94,1.58,7.39,1.58q10.26,0,15.88-6.81t5.62-19.23q0-12.18-6.16-19.26T489.78,604.34Z" transform="translate(-218.19 -456.27)"/><path class="cls-7" d="M563.46,601v1.72q-4.37,1-5.88,2.64c-1,1.11-1.52,3.38-1.52,6.83v37.88q0,4,1.42,5.57c.95,1,2.94,2,6,2.71v1.73H535.54v-1.73a17.75,17.75,0,0,0,4.71-1.72,5.17,5.17,0,0,0,2.17-2.37,16,16,0,0,0,.62-5.47V611q0-4-1.46-5.6c-1-1.07-3-2-6-2.69V601Z" transform="translate(-218.19 -456.27)"/><path class="cls-7" d="M626.29,621.6h-1.63q-2-8.93-7.3-13.85a18.09,18.09,0,0,0-12.82-4.94,15.2,15.2,0,0,0-13.1,7q-4.85,6.94-4.85,18.69,0,13.06,5.67,20.22t15.63,7.15a21.93,21.93,0,0,0,9.86-2.22,32.8,32.8,0,0,0,9.13-7.15v3.11q-8.77,12-23.92,12-13.56,0-22-8.41t-8.49-21.82q0-13.62,9.15-22.76t22.76-9.15a38.22,38.22,0,0,1,12.58,2.47A15.2,15.2,0,0,0,621,603c1.45,0,2.66-1,3.65-3.06h1.63Z" transform="translate(-218.19 -456.27)"/><path class="cls-7" d="M632.85,660.07v-1.73q7.49-.58,7.49-7.54v-40q0-4.09-1.55-5.67t-5.94-2.42V601H661q11,0,17,3.89a12.38,12.38,0,0,1,5.94,11,13.06,13.06,0,0,1-3.09,8.73,17.72,17.72,0,0,1-8.86,5.33v.19c1.38.34,2.87,1.48,4.48,3.44s4,5.79,7,11.51q4.48,8.34,6.54,10.55a9.21,9.21,0,0,0,5.6,2.76v1.73h-17q-3.35-4-8.6-14.36a76.84,76.84,0,0,0-5.36-9.51,10.75,10.75,0,0,0-3.65-3.33c-1.26-.64-3.79-1-7.57-1v18.15q0,3.9,1.73,5.79c1.15,1.27,3.1,2.1,5.87,2.49v1.73Zm24.55-55.73h-4v24.22c1,.06,2,.1,2.86.1q7,0,10.28-3t3.23-9.59Q669.73,604.35,657.4,604.34Z" transform="translate(-218.19 -456.27)"/><path class="cls-7" d="M733.7,660.07v-1.73a14.52,14.52,0,0,0,5.13-1.7,3.22,3.22,0,0,0,1.5-2.83,14.7,14.7,0,0,0-1.14-4.54l-3.41-9.07H714.69L711.77,648a14.9,14.9,0,0,0-1.11,4.84q0,3.9,5.92,5.47v1.73H697.5v-1.73a10,10,0,0,0,6-3.6q2.57-3,5.08-9.81l17-45.47h8.07l18,47.29q2.46,6.32,4.84,8.81a9.14,9.14,0,0,0,6.18,2.78v1.73ZM716.59,636h17.6l-9-24Z" transform="translate(-218.19 -456.27)"/><path class="cls-7" d="M806.64,621h1.72v18.35h-1.72q-.69-4-2.81-5.69t-6.37-1.71h-9.17v18.25c0,2.63.53,4.53,1.58,5.72s2.94,2,5.67,2.46v1.73H767.83v-1.73q4.35-.69,5.87-2.59c1-1.26,1.52-3.59,1.52-7V610.7q0-3.6-1.44-5.17c-1-1.06-2.95-2-5.95-2.82V601h41.86l1.19,11.09h-1.73a12.73,12.73,0,0,0-4-5.94,11,11,0,0,0-6.64-1.8H788.29v24.22h9.17c2.67,0,4.66-.55,6-1.63S805.85,623.86,806.64,621Z" transform="translate(-218.19 -456.27)"/><path class="cls-7" d="M854.33,658.34v1.73H826.61v-1.73c2.91-.55,4.87-1.41,5.88-2.56s1.52-3.26,1.52-6.31V604.34h-5.9c-3.58,0-6.41.78-8.49,2.32A13.79,13.79,0,0,0,815,614h-1.72l.59-14.25h1.82a11,11,0,0,0,5.82,1.23H859.6q4,0,5.82-1.23h1.83l.59,14.25h-1.73a13.68,13.68,0,0,0-4.65-7.35c-2.08-1.54-4.91-2.32-8.48-2.32h-5.9v45.23q0,4.33,1.53,6.18T854.33,658.34Z" transform="translate(-218.19 -456.27)"/></svg>